<svg width="80" height="80" viewBox="0 0 80 80" fill="none" xmlns="http://www.w3.org/2000/svg">
<rect width="80" height="80" rx="4" fill="#242A2F" fill-opacity="0.04"/>
<path fill-rule="evenodd" clip-rule="evenodd" d="M65.0909 8.24239C64.8566 8.00807 64.4767 8.00807 64.2424 8.24239C64.0081 8.4767 64.0081 8.8566 64.2424 9.09091L67.3538 12.2023L64.2424 15.3137C64.0081 15.548 64.0081 15.9279 64.2424 16.1622C64.4767 16.3965 64.8566 16.3965 65.0909 16.1622L68.2023 13.0508L71.3135 16.162C71.5478 16.3963 71.9277 16.3963 72.162 16.162C72.3963 15.9277 72.3963 15.5478 72.162 15.3135L69.0508 12.2023L72.162 9.09113C72.3963 8.85682 72.3963 8.47692 72.162 8.24261C71.9277 8.00829 71.5478 8.00829 71.3135 8.24261L68.2023 11.3538L65.0909 8.24239Z" fill="white"/>
<path d="M51.0986 33.7333L49.7599 32.496L45.1733 28.2613L43.6746 26.88C43.5253 26.7413 43.3279 26.6666 43.1306 26.6666H32.5333C31.4666 26.6666 30.5919 27.536 30.5919 28.608V39.7386H32.1866V28.608C32.1866 28.416 32.3413 28.2666 32.5279 28.2666H42.3306V34.32C42.3306 34.7626 42.6879 35.12 43.1306 35.12H49.7599V51.392C49.7599 51.584 49.6053 51.7333 49.4186 51.7333H32.5333C32.3413 51.7333 32.1919 51.5786 32.1919 51.392V48.7733H30.5919V51.392C30.5919 52.464 31.4666 53.3333 32.5333 53.3333H49.4186C50.4906 53.3333 51.3599 52.464 51.3599 51.392V34.32C51.3599 34.1013 51.2692 33.888 51.0986 33.7333Z" fill="#242A2F" fill-opacity="0.3"/>
<path d="M31.9576 42.9439C31.9042 42.9279 31.7869 42.9119 31.5202 42.9119H30.6562V44.0585H31.5309C31.8242 44.0585 32.0322 44.0052 32.1496 43.9039C32.2616 43.8025 32.3202 43.6639 32.3202 43.4719C32.3202 43.3332 32.2882 43.2212 32.2189 43.1252C32.1496 43.0345 32.0642 42.9759 31.9576 42.9439Z" fill="#242A2F" fill-opacity="0.3"/>
<path d="M35.8079 42.9867C35.6853 42.9387 35.4826 42.9174 35.1999 42.9174H34.5066V45.5947H35.2106C35.4453 45.5947 35.6319 45.5734 35.7653 45.5307C35.8933 45.488 35.9893 45.4347 36.0639 45.36C36.1706 45.2534 36.2559 45.104 36.3146 44.9227C36.3786 44.736 36.4106 44.5014 36.4106 44.2294C36.4106 43.856 36.3519 43.568 36.2293 43.376C36.1119 43.1787 35.9679 43.0507 35.8079 42.9867Z" fill="#242A2F" fill-opacity="0.3"/>
<path d="M42.5707 46.7306V41.7759C42.5707 41.2373 42.1333 40.7999 41.5947 40.7999H28.976C28.4373 40.8053 28 41.2373 28 41.7759V46.7306C28 47.2693 28.4373 47.7066 28.976 47.7066H41.6C42.1387 47.7066 42.5707 47.2693 42.5707 46.7306ZM32.6987 44.3413C32.4747 44.5866 32.0907 44.7039 31.52 44.7039H30.656V46.2346H29.9627V42.2773H31.4827C31.7387 42.2773 31.936 42.2879 32.0747 42.3146C32.272 42.3466 32.4427 42.4106 32.576 42.5066C32.7147 42.6026 32.8267 42.7359 32.912 42.9066C32.992 43.0773 33.0347 43.2639 33.0347 43.4613C33.0293 43.8026 32.9173 44.1013 32.6987 44.3413ZM37.0133 45.0239C36.944 45.2533 36.8533 45.4506 36.7413 45.5999C36.6293 45.7546 36.5067 45.8773 36.3733 45.9679C36.24 46.0586 36.08 46.1226 35.8933 46.1706C35.712 46.2133 35.4987 46.2399 35.264 46.2399H33.8133V42.2826H35.2107C35.5147 42.2826 35.7387 42.2986 35.904 42.3413C36.1333 42.3946 36.336 42.4906 36.496 42.6293C36.704 42.8053 36.864 43.0346 36.9707 43.3119C37.072 43.5839 37.1253 43.8933 37.1253 44.2399C37.12 44.5279 37.0827 44.7946 37.0133 45.0239ZM40.6667 42.9173H38.6293V43.8826H40.3947V44.5226H38.6293V46.2293H37.936V42.2719H40.672V42.9173H40.6667Z" fill="#242A2F" fill-opacity="0.3"/>
</svg>