<svg width="16" height="16" viewBox="0 0 16 16" fill="none" xmlns="http://www.w3.org/2000/svg"><path fill-rule="evenodd" clip-rule="evenodd" d="M5.09091 4.24239C4.8566 4.00807 4.4767 4.00807 4.24239 4.24239C4.00807 4.4767 4.00807 4.8566 4.24239 5.09091L7.35377 8.2023L4.24239 11.3137C4.00807 11.548 4.00807 11.9279 4.24239 12.1622C4.4767 12.3965 4.8566 12.3965 5.09091 12.1622L8.2023 9.05082L11.3135 12.162C11.5478 12.3963 11.9277 12.3963 12.162 12.162C12.3963 11.9277 12.3963 11.5478 12.162 11.3135L9.05082 8.2023L12.162 5.09113C12.3963 4.85682 12.3963 4.47692 12.162 4.24261C11.9277 4.00829 11.5478 4.00829 11.3135 4.24261L8.2023 7.35377L5.09091 4.24239Z" fill="white"/></svg>