<svg width="32" height="32" viewBox="0 0 32 32" fill="none" xmlns="http://www.w3.org/2000/svg">
<rect width="32" height="32" rx="16" fill="#242A2F" fill-opacity="0.04"/>
<path fill-rule="evenodd" clip-rule="evenodd" d="M10.6667 8.88889V23.1111H21.3334V12.5H18.2223H17.7223V12V8.88889H10.6667ZM18.7223 9.31263L20.9096 11.5H18.7223V9.31263ZM18.6667 8H10.6667C10.1758 8 9.77783 8.39797 9.77783 8.88889V23.1111C9.77783 23.602 10.1758 24 10.6667 24H21.3334C21.8243 24 22.2223 23.602 22.2223 23.1111V11.5556L18.6667 8ZM16.3536 14.7576L16.0001 14.404L15.6465 14.7576L13.4243 16.9798L14.1314 17.6869L15.5001 16.3182V21.3333H16.5001V16.3182L17.8687 17.6869L18.5758 16.9798L16.3536 14.7576Z" fill="#64D0DA"/>
</svg>