<svg width="16" height="16" viewBox="0 0 16 16" fill="none" xmlns="http://www.w3.org/2000/svg">
<path d="M12.2 3.20002H11V2.60002C11 2.44089 10.9368 2.28827 10.8243 2.17575C10.7117 2.06323 10.5591 2.00002 10.4 2.00002C10.2409 2.00002 10.0883 2.06323 9.97574 2.17575C9.86321 2.28827 9.8 2.44089 9.8 2.60002V3.20002H6.2V2.60002C6.2 2.44089 6.13679 2.28827 6.02426 2.17575C5.91174 2.06323 5.75913 2.00002 5.6 2.00002C5.44087 2.00002 5.28826 2.06323 5.17574 2.17575C5.06321 2.28827 5 2.44089 5 2.60002V3.20002H3.8C3.32261 3.20002 2.86477 3.38966 2.52721 3.72722C2.18964 4.06479 2 4.52263 2 5.00002V12.2C2 12.6774 2.18964 13.1352 2.52721 13.4728C2.86477 13.8104 3.32261 14 3.8 14H12.2C12.6774 14 13.1352 13.8104 13.4728 13.4728C13.8104 13.1352 14 12.6774 14 12.2V5.00002C14 4.52263 13.8104 4.06479 13.4728 3.72722C13.1352 3.38966 12.6774 3.20002 12.2 3.20002ZM12.8 12.2C12.8 12.3591 12.7368 12.5118 12.6243 12.6243C12.5117 12.7368 12.3591 12.8 12.2 12.8H3.8C3.64087 12.8 3.48826 12.7368 3.37574 12.6243C3.26321 12.5118 3.2 12.3591 3.2 12.2V8.00002H12.8V12.2ZM12.8 6.80002H3.2V5.00002C3.2 4.84089 3.26321 4.68827 3.37574 4.57575C3.48826 4.46323 3.64087 4.40002 3.8 4.40002H5V5.00002C5 5.15915 5.06321 5.31176 5.17574 5.42428C5.28826 5.5368 5.44087 5.60002 5.6 5.60002C5.75913 5.60002 5.91174 5.5368 6.02426 5.42428C6.13679 5.31176 6.2 5.15915 6.2 5.00002V4.40002H9.8V5.00002C9.8 5.15915 9.86321 5.31176 9.97574 5.42428C10.0883 5.5368 10.2409 5.60002 10.4 5.60002C10.5591 5.60002 10.7117 5.5368 10.8243 5.42428C10.9368 5.31176 11 5.15915 11 5.00002V4.40002H12.2C12.3591 4.40002 12.5117 4.46323 12.6243 4.57575C12.7368 4.68827 12.8 4.84089 12.8 5.00002V6.80002Z" fill="#242A2F" fill-opacity="0.3"/>
</svg>