<svg width="16" height="16" viewBox="0 0 16 16" fill="none" xmlns="http://www.w3.org/2000/svg">
<path fill-rule="evenodd" clip-rule="evenodd" d="M11.0784 12.0214C10.052 12.8425 8.74999 13.3335 7.33331 13.3335C4.0196 13.3335 1.33331 10.6472 1.33331 7.3335C1.33331 4.01979 4.0196 1.3335 7.33331 1.3335C10.647 1.3335 13.3333 4.01979 13.3333 7.3335C13.3333 8.75017 12.8423 10.0522 12.0212 11.0786L14.4714 13.5288C14.7318 13.7891 14.7318 14.2113 14.4714 14.4716C14.2111 14.732 13.789 14.732 13.5286 14.4716L11.0784 12.0214ZM2.66665 7.3335C2.66665 4.75617 4.75598 2.66683 7.33331 2.66683C9.91064 2.66683 12 4.75617 12 7.3335C12 8.59092 11.5027 9.73218 10.694 10.5713C10.6713 10.5888 10.6494 10.608 10.6286 10.6288C10.6078 10.6496 10.5886 10.6715 10.5712 10.6942C9.732 11.5029 8.59073 12.0002 7.33331 12.0002C4.75598 12.0002 2.66665 9.91083 2.66665 7.3335Z" fill="#242A2F" fill-opacity="0.3"/>
</svg>