<svg width="20" height="20" viewBox="0 0 20 20" fill="none" xmlns="http://www.w3.org/2000/svg">
<g clip-path="url(#clip0)">
<path d="M7.64294 10.0433L6.46442 11.2218L9.99996 14.7573L13.5355 11.2218L12.357 10.0433L10.8333 11.567L10.8333 5.28602L9.16662 5.28602L9.16662 11.567L7.64294 10.0433Z" fill="white"/>
<path fill-rule="evenodd" clip-rule="evenodd" d="M3.51818 16.4818C7.09799 20.0616 12.902 20.0616 16.4818 16.4818C20.0616 12.902 20.0616 7.098 16.4818 3.5182C12.902 -0.0616082 7.09799 -0.0616085 3.51818 3.5182C-0.0616267 7.098 -0.061627 12.902 3.51818 16.4818ZM4.69669 15.3033C7.62562 18.2322 12.3744 18.2322 15.3033 15.3033C18.2322 12.3744 18.2322 7.62564 15.3033 4.69671C12.3744 1.76778 7.62562 1.76778 4.69669 4.69671C1.76776 7.62564 1.76776 12.3744 4.69669 15.3033Z" fill="white"/>
</g>
<defs>
<clipPath id="clip0">
<rect width="20" height="20" fill="white" transform="translate(20) rotate(90)"/>
</clipPath>
</defs>
</svg>
