<svg width="24" height="24" viewBox="0 0 24 24" fill="none" xmlns="http://www.w3.org/2000/svg">
	<path d="M12.6231 12.6223L18.1834 12.6264C18.3497 12.6264 18.5092 12.5603 18.6268 12.4427C18.7445 12.3251 18.8105 12.1656 18.8105 11.9993C18.8106 11.8329 18.7445 11.6734 18.6269 11.5558C18.5093 11.4382 18.3498 11.3721 18.1834 11.3722L12.6231 11.3769L12.6278 5.81656C12.6279 5.65023 12.5618 5.49072 12.4442 5.37311C12.3266 5.25551 12.1671 5.18945 12.0007 5.18945C11.8344 5.18946 11.6749 5.25554 11.5573 5.37316C11.4397 5.49078 11.3736 5.6503 11.3736 5.81662L11.3777 11.3769L5.81738 11.3728C5.73493 11.3725 5.65322 11.3885 5.57698 11.4199C5.50074 11.4513 5.43147 11.4975 5.37316 11.5558C5.31486 11.6141 5.26867 11.6833 5.23727 11.7596C5.20587 11.8358 5.18987 11.9175 5.19021 12C5.18987 12.0824 5.20585 12.1641 5.23724 12.2404C5.26864 12.3166 5.31482 12.3859 5.37311 12.4442C5.43141 12.5025 5.50068 12.5487 5.57692 12.5801C5.65316 12.6114 5.73486 12.6274 5.81731 12.6271L11.3776 12.6224L11.3729 18.1827C11.3726 18.2651 11.3886 18.3468 11.4199 18.4231C11.4513 18.4993 11.4975 18.5686 11.5558 18.6269C11.6141 18.6852 11.6834 18.7314 11.7596 18.7628C11.8359 18.7941 11.9176 18.8101 12 18.8098C12.0825 18.8101 12.1642 18.7941 12.2404 18.7627C12.3167 18.7313 12.3859 18.6851 12.4442 18.6268C12.5025 18.5685 12.5487 18.4993 12.5801 18.423C12.6115 18.3468 12.6275 18.2651 12.6272 18.1826L12.6231 12.6223Z" fill="white" stroke="white" stroke-width="0.5"/>
</svg>
