<svg width="48" height="48" viewBox="0 0 48 48" fill="none" xmlns="http://www.w3.org/2000/svg">
	<path fill-rule="evenodd" clip-rule="evenodd" d="M16.3359 4.8906C16.7068 4.3342 17.3313 4 18 4H30C30.6687 4 31.2932 4.3342 31.6641 4.8906L35.0704 10H42C43.5913 10 45.1174 10.6321 46.2426 11.7574C47.3679 12.8826 48 14.4087 48 16V38C48 39.5913 47.3679 41.1174 46.2426 42.2426C45.1174 43.3679 43.5913 44 42 44H6C4.4087 44 2.88258 43.3679 1.75736 42.2426C0.632141 41.1174 0 39.5913 0 38V16C0 14.4087 0.632141 12.8826 1.75736 11.7574C2.88258 10.6321 4.4087 10 6 10H12.9296L16.3359 4.8906ZM19.0704 8L15.6641 13.1094C15.2932 13.6658 14.6687 14 14 14H6C5.46957 14 4.96086 14.2107 4.58579 14.5858C4.21071 14.9609 4 15.4696 4 16V38C4 38.5304 4.21071 39.0391 4.58579 39.4142C4.96086 39.7893 5.46957 40 6 40H42C42.5304 40 43.0391 39.7893 43.4142 39.4142C43.7893 39.0391 44 38.5304 44 38V16C44 15.4696 43.7893 14.9609 43.4142 14.5858C43.0391 14.2107 42.5304 14 42 14H34C33.3313 14 32.7068 13.6658 32.3359 13.1094L28.9296 8H19.0704Z" fill="#BFC7D8"/>
	<path fill-rule="evenodd" clip-rule="evenodd" d="M24 20C20.6863 20 18 22.6863 18 26C18 29.3137 20.6863 32 24 32C27.3137 32 30 29.3137 30 26C30 22.6863 27.3137 20 24 20ZM14 26C14 20.4772 18.4772 16 24 16C29.5228 16 34 20.4772 34 26C34 31.5228 29.5228 36 24 36C18.4772 36 14 31.5228 14 26Z" fill="#BFC7D8"/>
</svg>
