<svg width="24" height="24" viewBox="0 0 24 24" fill="none" xmlns="http://www.w3.org/2000/svg">
	<path d="M12.56 2C15.1236 2.00731 17.5865 2.99891 19.44 4.77V3C19.44 2.73478 19.5454 2.48043 19.7329 2.29289C19.9204 2.10536 20.1748 2 20.44 2C20.7052 2 20.9596 2.10536 21.1471 2.29289C21.3346 2.48043 21.44 2.73478 21.44 3V7.5C21.44 7.76522 21.3346 8.01957 21.1471 8.20711C20.9596 8.39464 20.7052 8.5 20.44 8.5H15.94C15.6748 8.5 15.4204 8.39464 15.2329 8.20711C15.0454 8.01957 14.94 7.76522 14.94 7.5C14.94 7.23478 15.0454 6.98043 15.2329 6.79289C15.4204 6.60536 15.6748 6.5 15.94 6.5H18.34C17.4283 5.53701 16.2915 4.81576 15.0319 4.40114C13.7723 3.98651 12.4293 3.89152 11.1239 4.1247C9.81842 4.35788 8.59141 4.91193 7.55323 5.73699C6.51504 6.56205 5.69823 7.63226 5.17629 8.85133C4.65435 10.0704 4.44364 11.4001 4.56311 12.7208C4.68259 14.0415 5.12851 15.3118 5.86075 16.4174C6.59299 17.5231 7.58859 18.4293 8.75799 19.0547C9.92739 19.68 11.2339 20.0049 12.56 20C12.8252 20 13.0796 20.1054 13.2671 20.2929C13.4546 20.4804 13.56 20.7348 13.56 21C13.56 21.2652 13.4546 21.5196 13.2671 21.7071C13.0796 21.8946 12.8252 22 12.56 22C9.90784 22 7.3643 20.9464 5.48893 19.0711C3.61357 17.1957 2.56 14.6522 2.56 12C2.56 9.34784 3.61357 6.8043 5.48893 4.92893C7.3643 3.05357 9.90784 2 12.56 2Z" fill="white"/>
</svg>
